<svg width="128" height="128" viewBox="0 0 128 128" fill="none" xmlns="http://www.w3.org/2000/svg">
    <rect width="128" height="128" rx="32" fill="#546DE5"/>
    <path fill-rule="evenodd" clip-rule="evenodd" d="M89.144 29.2166C87.0418 29.7431 85.3658 30.8802 83.9752 32.7232C82.1966 35.0805 81.6338 37.1841 81.1713 43.2043C80.5415 51.399 79.8464 55.6899 78.5189 59.578L77.989 61.1296L78.7325 61.9903C79.8732 63.3108 80.7035 64.8017 81.2863 66.5754C81.7626 68.0254 81.8175 68.4053 81.825 70.3071C81.834 72.6045 81.492 74.2636 80.6787 75.8664C80.2143 76.7816 79.4593 77.7317 79.6396 77.1739C79.9179 76.3136 80.1049 73.951 80.0221 72.3416C79.7488 67.0298 76.982 63.582 70.248 60.1612C67.6599 58.8463 63.5564 57.1224 58.9519 55.4153C46.8716 50.9369 41.7144 48.7865 35.668 45.7066C28.8722 42.2451 24.2031 39.297 17.8304 34.4437C16.577 33.4892 15.5305 32.7291 15.5047 32.7549C15.3968 32.8628 17.1683 39.5363 17.7391 41.1716C20.0819 47.8841 23.287 53.0767 27.1063 56.347C32.1845 60.6953 37.4712 62.6936 49.0292 64.6335C54.5308 65.557 57.7841 66.2107 60.8504 67.0088C63.1666 67.6117 66.6215 68.8283 66.9221 69.1469C67.042 69.2741 66.9915 69.3024 66.7543 69.2408C64.0686 68.5442 56.8154 67.4853 46.7867 66.3257C37.8047 65.2871 33.0399 64.2196 27.8765 62.0887C26.8792 61.6771 26.0319 61.3713 25.9939 61.4094C25.8635 61.5397 27.9061 64.8015 29.1792 66.4958C30.7351 68.5664 33.7163 71.5967 35.5445 72.9659C40.0781 76.361 45.2106 78.1579 51.4039 78.5182C53.3116 78.6291 57.456 78.4381 60.7931 78.0854C61.7124 77.9883 62.5057 77.9497 62.5558 77.9999C62.7909 78.2346 58.6513 82.609 56.1681 84.7498C51.1447 89.081 43.72 93.7884 35.1629 98.0679C34.2065 98.5461 33.4243 98.9652 33.4243 98.9991C33.4243 99.0595 44.9992 96.1751 46.8241 95.6598C47.3372 95.515 49.0165 95.0436 50.5558 94.6123C64.2123 90.7857 72.8437 87.0632 79.0773 82.3111C81.0885 80.7777 84.4376 77.3931 85.7245 75.5931C88.4009 71.8496 89.8939 68.1531 90.663 63.3671C91.1259 60.4852 91.3097 55.177 91.2163 47.3849C91.1672 43.3022 91.095 39.9298 91.0555 39.8904C91.0161 39.8509 89.9268 40.3513 88.6352 41.0022C87.3435 41.6532 86.2568 42.1561 86.2205 42.1197C86.0844 41.9839 88.1677 40.1001 89.2499 39.3803C93.2951 36.69 99.7086 34.2315 107.779 32.2772C109.471 31.8676 111.39 31.4335 112.043 31.3127C113.131 31.1111 112.658 31.0847 106.36 30.9946C98.9875 30.8892 98.813 30.8699 96.5235 29.9074C95.9642 29.6725 95.0291 29.3677 94.4456 29.2303C93.1672 28.9293 90.3207 28.9219 89.144 29.2166Z" fill="white"/>
</svg>
